<svg width="767" height="167" viewBox="0 0 767 167" fill="none" xmlns="http://www.w3.org/2000/svg">
<g filter="url(#filter0_d)">
<path d="M33.8662 61.4876C30.5123 61.4876 27.6666 60.3188 25.329 57.9813C22.9915 55.6437 21.8227 52.798 21.8227 49.4441C21.8227 46.0902 22.9915 43.2445 25.329 40.9069C27.6666 38.4677 30.5123 37.2481 33.8662 37.2481C37.2201 37.2481 40.0658 38.4677 42.4034 40.9069C44.8426 43.2445 46.0622 46.0902 46.0622 49.4441C46.0622 52.798 44.8426 55.6437 42.4034 57.9813C40.0658 60.3188 37.2201 61.4876 33.8662 61.4876ZM23.0423 73.3787H36.0005L24.4143 149.604L0.937078 152.805L23.0423 73.3787ZM102.888 118.046C98.8225 118.046 95.2654 117.183 92.2164 115.455C89.269 113.829 87.7953 110.932 87.7953 106.765C87.7953 104.123 88.4559 101.175 89.7772 97.9231C91.6066 99.9558 93.2835 101.379 94.808 102.192C96.4341 103.005 98.1619 103.411 99.9913 103.411C105.073 103.411 108.833 100.566 111.273 94.8741C113.813 89.1827 115.084 82.8814 115.084 75.9703C115.084 63.0629 110.256 56.6092 100.601 56.6092C97.857 56.6092 95.5194 56.7617 93.5884 57.0666L81.0875 115.455H59.1348L79.8679 18.4968L102.431 15.4478L95.2654 49.2916H96.1801C100.042 49.2916 103.65 48.072 107.004 45.6328C110.358 43.092 113.051 39.9414 115.084 36.181C117.116 32.3189 118.133 28.4568 118.133 24.5948C118.133 19.9197 116.456 16.0068 113.102 12.8561C109.85 9.70551 104.819 8.1302 98.0095 8.1302C91.8098 8.1302 85.7627 9.55306 79.8679 12.3988C73.9732 15.1429 69.1456 19.3098 65.3852 24.8997C61.7264 30.4895 59.897 37.2481 59.897 45.1755C59.897 48.9359 60.2527 51.5784 60.9642 53.1029C61.6756 54.5257 62.0313 55.3388 62.0313 55.5421C56.6448 55.5421 52.5794 54.4749 49.8353 52.3406C47.0912 50.1047 45.7192 46.4967 45.7192 41.5167C45.7192 34.6056 48.3108 28.0503 53.4941 21.8507C58.6774 15.6511 65.5377 10.671 74.0749 6.91061C82.612 3.04854 91.6066 1.11751 101.058 1.11751C108.173 1.11751 114.169 2.23548 119.048 4.47141C123.926 6.70734 127.534 9.6547 129.871 13.3135C132.311 16.9723 133.53 20.9868 133.53 25.357C133.53 30.0322 132.209 34.5548 129.567 38.9251C126.924 43.2953 123.164 46.8524 118.285 49.5965C124.383 50.7145 128.906 53.5602 131.853 58.1337C134.801 62.6056 136.274 67.9413 136.274 74.1409C136.274 79.934 135.156 86.2353 132.92 93.0447C130.786 99.8541 127.178 105.749 122.097 110.729C117.116 115.607 110.714 118.046 102.888 118.046ZM167.012 30.9977C163.658 30.9977 160.812 29.8289 158.475 27.4913C156.137 25.1538 154.968 22.308 154.968 18.9541C154.968 15.6002 156.137 12.7545 158.475 10.417C160.812 7.97775 163.658 6.75815 167.012 6.75815C170.366 6.75815 173.212 7.97775 175.549 10.417C177.988 12.7545 179.208 15.6002 179.208 18.9541C179.208 22.308 177.988 25.1538 175.549 27.4913C173.212 29.8289 170.366 30.9977 167.012 30.9977ZM156.645 116.37C151.767 116.37 147.803 114.845 144.754 111.796C141.807 108.747 140.333 104.174 140.333 98.0756C140.333 95.5347 140.74 92.2317 141.553 88.1663L151.92 39.23H173.872L162.896 91.0629C162.489 92.5874 162.286 94.2135 162.286 95.9413C162.286 97.9739 162.743 99.4476 163.658 100.362C164.674 101.175 166.301 101.582 168.537 101.582C171.484 101.582 174.228 100.362 176.769 97.9231C179.31 95.3823 181.139 92.13 182.257 88.1663H188.66C184.899 99.1427 180.072 106.613 174.177 110.576C168.282 114.439 162.439 116.37 156.645 116.37ZM203.997 116.37C196.476 116.37 190.632 114.439 186.465 110.576C182.298 106.613 180.214 100.464 180.214 92.13C180.214 85.1173 181.586 77.3932 184.331 68.9577C187.075 60.5221 191.547 53.2553 197.746 47.1573C203.946 40.9577 211.822 37.8579 221.376 37.8579C232.555 37.8579 238.145 42.7363 238.145 52.4931C238.145 58.1845 236.519 63.4186 233.267 68.1954C230.015 72.9722 225.695 76.8342 220.309 79.7816C214.922 82.6273 209.18 84.2534 203.082 84.66C202.879 87.709 202.777 89.7416 202.777 90.758C202.777 95.738 203.641 99.1427 205.369 100.972C207.096 102.7 209.891 103.564 213.753 103.564C219.242 103.564 223.917 102.293 227.779 99.7525C231.742 97.2117 236.062 93.3496 240.737 88.1663H245.92C234.639 106.968 220.664 116.37 203.997 116.37ZM204.301 77.3424C208.062 77.1391 211.619 75.8179 214.973 73.3787C218.428 70.9395 221.173 67.8397 223.205 64.0793C225.34 60.3188 226.407 56.3551 226.407 52.1882C226.407 48.0212 225.136 45.9377 222.595 45.9377C218.937 45.9377 215.329 49.1392 211.772 55.5421C208.316 61.945 205.826 69.2117 204.301 77.3424ZM295.739 116.37C289.54 116.37 284.966 114.743 282.019 111.491C279.173 108.137 277.75 104.021 277.75 99.1427C277.75 97.0084 278.004 94.62 278.512 91.9776C279.021 89.2335 279.529 86.591 280.037 84.0502C280.647 81.5094 281.053 79.8832 281.256 79.1718C282.07 75.6146 282.832 72.1083 283.543 68.6528C284.255 65.1972 284.61 62.4023 284.61 60.268C284.61 55.0847 282.781 52.4931 279.122 52.4931C276.48 52.4931 274.142 53.8143 272.109 56.4568C270.077 58.9976 268.451 62.3515 267.231 66.5185L256.864 115.455H234.912L251.071 39.23H273.024L271.347 47.1573C276.429 41.4659 282.374 38.6202 289.184 38.6202C294.367 38.6202 298.483 40.043 301.532 42.8887C304.581 45.7345 306.106 50.0539 306.106 55.847C306.106 58.7943 305.75 62.0974 305.039 65.7562C304.327 69.3134 303.311 73.6836 301.99 78.8669C301.177 82.0175 300.414 85.1173 299.703 88.1663C299.093 91.1137 298.788 93.4513 298.788 95.179C298.788 97.2117 299.246 98.787 300.16 99.905C301.075 101.023 302.65 101.582 304.886 101.582C307.935 101.582 310.374 100.515 312.204 98.3805C314.033 96.1445 315.863 92.7398 317.692 88.1663H324.095C320.334 99.346 315.964 106.867 310.984 110.729C306.106 114.489 301.024 116.37 295.739 116.37ZM335.053 116.37C329.159 116.37 324.534 114.896 321.18 111.948C317.928 108.899 316.302 104.377 316.302 98.3805C316.302 95.9413 316.556 93.5021 317.064 91.0629L328.041 39.23H349.993L339.017 91.0629C338.509 93.6037 338.255 95.4331 338.255 96.5511C338.255 99.905 339.983 101.582 343.438 101.582C348.113 101.582 352.433 98.6345 356.396 92.7398C360.462 86.8451 363.714 79.8324 366.153 71.7018C368.592 63.5711 369.812 56.5584 369.812 50.6637C369.609 51.1719 368.948 51.5784 367.83 51.8833C366.712 52.0865 365.747 52.1882 364.933 52.1882C363.206 52.1882 361.834 51.3751 360.817 49.749C359.903 48.1229 359.445 46.3443 359.445 44.4132C359.445 41.9741 360.208 39.9922 361.732 38.4677C363.358 36.9432 365.747 36.181 368.897 36.181C372.251 36.181 374.69 37.4514 376.215 39.9922C377.739 42.4314 378.502 45.582 378.502 49.4441C378.502 58.5911 376.926 68.3987 373.776 78.8669C370.625 89.2335 365.797 98.0756 359.293 105.393C352.788 112.711 344.708 116.37 335.053 116.37ZM402.598 116.37C395.077 116.37 389.233 114.439 385.066 110.576C380.899 106.613 378.816 100.464 378.816 92.13C378.816 85.1173 380.188 77.3932 382.932 68.9577C385.676 60.5221 390.148 53.2553 396.348 47.1573C402.547 40.9577 410.424 37.8579 419.977 37.8579C431.157 37.8579 436.747 42.7363 436.747 52.4931C436.747 58.1845 435.121 63.4186 431.868 68.1954C428.616 72.9722 424.297 76.8342 418.91 79.7816C413.524 82.6273 407.781 84.2534 401.683 84.66C401.48 87.709 401.379 89.7416 401.379 90.758C401.379 95.738 402.242 99.1427 403.97 100.972C405.698 102.7 408.493 103.564 412.355 103.564C417.843 103.564 422.518 102.293 426.38 99.7525C430.344 97.2117 434.663 93.3496 439.338 88.1663H444.522C433.241 106.968 419.266 116.37 402.598 116.37ZM402.903 77.3424C406.663 77.1391 410.221 75.8179 413.574 73.3787C417.03 70.9395 419.774 67.8397 421.807 64.0793C423.941 60.3188 425.008 56.3551 425.008 52.1882C425.008 48.0212 423.738 45.9377 421.197 45.9377C417.538 45.9377 413.93 49.1392 410.373 55.5421C406.918 61.945 404.428 69.2117 402.903 77.3424ZM494.341 116.37C488.141 116.37 483.568 114.743 480.62 111.491C477.774 108.137 476.352 104.021 476.352 99.1427C476.352 97.0084 476.606 94.62 477.114 91.9776C477.622 89.2335 478.13 86.591 478.638 84.0502C479.248 81.5094 479.655 79.8832 479.858 79.1718C480.671 75.6146 481.433 72.1083 482.145 68.6528C482.856 65.1972 483.212 62.4023 483.212 60.268C483.212 55.0847 481.382 52.4931 477.724 52.4931C475.081 52.4931 472.744 53.8143 470.711 56.4568C468.678 58.9976 467.052 62.3515 465.833 66.5185L455.466 115.455H433.513L449.673 39.23H471.626L469.949 47.1573C475.03 41.4659 480.976 38.6202 487.785 38.6202C492.969 38.6202 497.085 40.043 500.134 42.8887C503.183 45.7345 504.707 50.0539 504.707 55.847C504.707 58.7943 504.352 62.0974 503.64 65.7562C502.929 69.3134 501.912 73.6836 500.591 78.8669C499.778 82.0175 499.016 85.1173 498.304 88.1663C497.695 91.1137 497.39 93.4513 497.39 95.179C497.39 97.2117 497.847 98.787 498.762 99.905C499.676 101.023 501.252 101.582 503.488 101.582C506.537 101.582 508.976 100.515 510.805 98.3805C512.635 96.1445 514.464 92.7398 516.293 88.1663H522.696C518.936 99.346 514.566 106.867 509.586 110.729C504.707 114.489 499.626 116.37 494.341 116.37ZM541.735 30.9977C538.381 30.9977 535.535 29.8289 533.198 27.4913C530.86 25.1538 529.691 22.308 529.691 18.9541C529.691 15.6002 530.86 12.7545 533.198 10.417C535.535 7.97775 538.381 6.75815 541.735 6.75815C545.089 6.75815 547.934 7.97775 550.272 10.417C552.711 12.7545 553.931 15.6002 553.931 18.9541C553.931 22.308 552.711 25.1538 550.272 27.4913C547.934 29.8289 545.089 30.9977 541.735 30.9977ZM531.368 116.37C526.49 116.37 522.526 114.845 519.477 111.796C516.53 108.747 515.056 104.174 515.056 98.0756C515.056 95.5347 515.463 92.2317 516.276 88.1663L526.642 39.23H548.595L537.619 91.0629C537.212 92.5874 537.009 94.2135 537.009 95.9413C537.009 97.9739 537.466 99.4476 538.381 100.362C539.397 101.175 541.023 101.582 543.259 101.582C546.207 101.582 548.951 100.362 551.492 97.9231C554.032 95.3823 555.862 92.13 556.98 88.1663H563.383C559.622 99.1427 554.795 106.613 548.9 110.576C543.005 114.439 537.161 116.37 531.368 116.37ZM575.213 116.37C569.42 116.37 564.592 114.388 560.73 110.424C556.868 106.46 554.937 100.261 554.937 91.8251C554.937 84.3043 556.411 76.4277 559.358 68.1954C562.407 59.8615 566.879 52.8488 572.774 47.1573C578.77 41.3643 585.884 38.4677 594.117 38.4677C598.284 38.4677 601.383 39.1791 603.416 40.602C605.449 42.0249 606.465 43.9051 606.465 46.2426V46.8524L613.935 11.789L636.498 8.74L618.966 91.0629C618.559 92.5874 618.356 94.2135 618.356 95.9413C618.356 97.9739 618.814 99.4476 619.728 100.362C620.745 101.175 622.371 101.582 624.607 101.582C627.452 101.582 629.892 100.362 631.924 97.9231C634.059 95.4839 635.735 92.2317 636.955 88.1663H643.358C637.158 106.359 626.944 115.455 612.716 115.455C608.549 115.455 605.144 114.337 602.501 112.101C599.961 109.865 598.385 106.613 597.775 102.344C595.133 106.409 591.932 109.763 588.171 112.406C584.512 115.048 580.193 116.37 575.213 116.37ZM585.122 101.582C587.561 101.582 590.001 100.464 592.44 98.228C594.981 95.9921 596.708 92.8923 597.623 88.9286V88.1663L605.093 53.2553C604.178 49.6982 602.095 47.9196 598.843 47.9196C594.777 47.9196 591.119 50.308 587.866 55.0847C584.614 59.7599 582.073 65.4513 580.244 72.1591C578.414 78.7653 577.5 84.6092 577.5 89.6908C577.5 94.7725 578.211 98.0247 579.634 99.4476C581.158 100.87 582.988 101.582 585.122 101.582ZM659.272 116.065C651.751 116.065 645.806 114.134 641.436 110.272C637.065 106.409 634.88 100.311 634.88 91.9776C634.88 84.9649 636.252 77.2916 638.996 68.9577C641.741 60.5221 646.212 53.2553 652.412 47.1573C658.612 40.9577 666.539 37.8579 676.194 37.8579C688.187 37.8579 694.641 44.7181 695.555 58.4386C697.791 57.9305 699.773 56.7109 701.501 54.7798C703.229 52.7472 704.855 50.4604 706.379 47.9196H711.258C708.514 53.4078 706.074 57.7272 703.94 60.8778C701.806 63.9268 699.011 66.4168 695.555 68.3479C694.946 77.9014 692.964 86.2861 689.61 93.5021C686.358 100.718 682.089 106.308 676.804 110.272C671.519 114.134 665.675 116.065 659.272 116.065ZM665.37 102.344C669.131 102.344 672.637 99.2952 675.889 93.1972C679.142 87.0992 681.378 79.5783 682.597 70.6346C680.158 69.7199 678.938 67.4332 678.938 63.7744C678.938 59.8107 680.361 57.1682 683.207 55.847C683.004 52.5947 682.445 50.3588 681.53 49.1392C680.717 47.818 679.345 47.1573 677.414 47.1573C674.06 47.1573 670.858 49.5965 667.809 54.4749C664.761 59.2517 662.27 65.0956 660.339 72.0067C658.51 78.8161 657.595 84.8124 657.595 89.9957C657.595 94.8741 658.154 98.1772 659.272 99.905C660.39 101.531 662.423 102.344 665.37 102.344ZM737.83 4.01406L761.308 0.812615L739.202 80.2389H726.244L737.83 4.01406ZM728.378 116.37C725.025 116.37 722.128 115.201 719.689 112.863C717.351 110.424 716.182 107.527 716.182 104.174C716.182 100.82 717.351 97.9739 719.689 95.6364C722.128 93.2988 725.025 92.13 728.378 92.13C731.732 92.13 734.578 93.2988 736.916 95.6364C739.253 97.9739 740.422 100.82 740.422 104.174C740.422 107.527 739.253 110.424 736.916 112.863C734.578 115.201 731.732 116.37 728.378 116.37Z" fill="black"/>
</g>
<defs>
<filter id="filter0_d" x="0.937012" y="0.812622" width="765.815" height="165.604" filterUnits="userSpaceOnUse" color-interpolation-filters="sRGB">
<feFlood flood-opacity="0" result="BackgroundImageFix"/>
<feColorMatrix in="SourceAlpha" type="matrix" values="0 0 0 0 0 0 0 0 0 0 0 0 0 0 0 0 0 0 127 0"/>
<feOffset dx="5.44463" dy="13.6116"/>
<feColorMatrix type="matrix" values="0 0 0 0 0 0 0 0 0 0 0 0 0 0 0 0 0 0 0.25 0"/>
<feBlend mode="normal" in2="BackgroundImageFix" result="effect1_dropShadow"/>
<feBlend mode="normal" in="SourceGraphic" in2="effect1_dropShadow" result="shape"/>
</filter>
</defs>
</svg>
